<?xml version="1.0" standalone="no"?>
<!DOCTYPE svg PUBLIC "-//W3C//DTD SVG 20010904//EN"
 "http://www.w3.org/TR/2001/REC-SVG-20010904/DTD/svg10.dtd">
<svg version="1.0" xmlns="http://www.w3.org/2000/svg"
 width="700.000000pt" height="700.000000pt" viewBox="0 0 700.000000 700.000000"
 preserveAspectRatio="xMidYMid meet">
<metadata>
Created by potrace 1.14, written by Peter Selinger 2001-2017
</metadata>
<g transform="translate(0.000000,700.000000) scale(0.100000,-0.100000)"
fill="#000000" stroke="none">
<path d="M1467 6123 c-1 0 -24 -4 -52 -7 -169 -19 -354 -108 -489 -235 -131
-125 -223 -296 -257 -481 -14 -76 -20 -3638 -6 -3750 49 -403 356 -713 759
-767 67 -9 4096 -9 4163 0 376 51 673 337 746 719 18 93 19 3672 2 3777 -35
209 -123 375 -271 512 -99 91 -266 185 -367 205 -11 2 -47 9 -80 16 -45 8
-584 12 -2103 12 -1124 1 -2044 0 -2045 -1z m591 -1113 c55 -25 730 -697 761
-757 28 -55 29 -127 4 -183 -26 -59 -702 -736 -760 -762 -47 -21 -129 -23
-174 -4 -106 45 -161 182 -116 287 9 23 111 133 276 298 144 144 261 265 261
269 0 4 -115 122 -256 262 -140 140 -265 271 -277 290 -29 47 -30 160 -2 205
32 51 87 97 130 108 45 11 112 5 153 -13z m1977 -1314 c101 -65 142 -164 111
-266 -14 -46 -91 -122 -138 -137 -25 -7 -189 -11 -509 -11 -513 0 -525 1 -582
56 -90 85 -95 216 -14 308 64 72 63 72 617 71 461 -2 486 -3 515 -21z"/>
</g>
</svg>
